<?xml version="1.0" standalone="no"?>
<!DOCTYPE svg PUBLIC "-//W3C//DTD SVG 20010904//EN"
 "http://www.w3.org/TR/2001/REC-SVG-20010904/DTD/svg10.dtd">
<svg version="1.0" xmlns="http://www.w3.org/2000/svg"
 width="500.000000pt" height="500.000000pt" viewBox="0 0 500.000000 500.000000"
 preserveAspectRatio="xMidYMid meet">

<g transform="translate(0.000000,500.000000) scale(0.100000,-0.100000)"
fill="#000000" stroke="none">
<path d="M0 2500 l0 -2500 2500 0 2500 0 0 2500 0 2500 -2500 0 -2500 0 0
-2500z m1706 1300 c5 -5 176 -350 379 -765 204 -415 372 -755 375 -755 3 0
165 341 359 758 194 416 358 760 365 764 13 9 348 11 370 2 14 -6 16 -84 16
-790 l0 -784 -195 0 -195 0 -2 328 -3 327 -270 -535 -270 -535 -171 -3 c-129
-2 -174 1 -181 10 -6 7 -136 256 -289 553 l-279 539 -5 -589 -5 -590 -192 -3
-193 -2 0 1033 c0 569 3 1037 7 1040 10 11 368 8 379 -3z m-421 -2782 c10 -18
35 -59 55 -90 l36 -57 54 90 c36 59 60 89 72 89 17 0 18 -13 18 -160 0 -153
-1 -160 -20 -160 -19 0 -20 7 -20 122 l0 122 -43 -69 c-29 -47 -50 -70 -63
-70 -12 0 -33 23 -61 70 l-43 69 0 -122 c0 -115 -1 -122 -20 -122 -19 0 -20 7
-20 160 0 147 1 160 18 160 10 0 26 -15 37 -32z m525 12 c0 -18 -7 -20 -75
-20 l-75 0 0 -50 0 -50 65 0 c51 0 65 -3 65 -15 0 -12 -14 -15 -65 -15 l-65 0
0 -60 0 -60 80 0 c64 0 80 -3 80 -15 0 -12 -18 -15 -100 -15 l-100 0 0 160 0
160 95 0 c88 0 95 -1 95 -20z m258 9 c53 -18 69 -113 27 -159 -15 -17 -15 -21
5 -59 40 -80 42 -91 17 -91 -18 0 -28 13 -51 65 l-28 65 -54 0 -54 0 0 -65 c0
-58 -2 -65 -20 -65 -19 0 -20 7 -20 160 l0 160 74 0 c40 0 87 -5 104 -11z
m199 -109 c23 -63 44 -119 45 -123 2 -5 23 48 47 117 35 101 47 126 62 126 11
0 19 -6 19 -12 0 -7 -24 -78 -53 -158 -72 -199 -76 -199 -145 -3 -29 81 -52
154 -52 161 0 8 8 12 18 10 12 -2 30 -38 59 -118z m432 96 c40 -36 34 -143 -9
-166 -10 -6 -44 -10 -74 -10 l-56 0 0 -60 c0 -57 -1 -60 -25 -60 l-25 0 0 153
c0 85 3 157 8 161 14 15 160 0 181 -18z m261 4 c0 -16 -7 -20 -30 -20 l-30 0
0 -125 0 -125 30 0 c20 0 30 -5 30 -15 0 -12 -16 -15 -80 -15 -63 0 -80 3 -80
14 0 9 12 16 28 18 l27 3 3 123 3 122 -31 0 c-23 0 -30 4 -30 20 0 18 7 20 80
20 73 0 80 -2 80 -20z m149 -42 l39 -62 39 62 c29 47 44 62 61 62 l24 0 -23
-37 c-12 -21 -36 -57 -51 -80 l-29 -43 39 -57 c21 -32 44 -68 51 -80 11 -21 9
-23 -11 -23 -17 0 -33 16 -61 62 l-39 62 -39 -62 c-27 -42 -46 -62 -59 -62
-11 0 -20 3 -20 6 0 3 20 37 45 75 25 38 45 74 45 79 0 5 -20 41 -45 80 -25
39 -45 72 -45 75 0 3 9 5 20 5 13 0 32 -20 59 -62z m431 42 c0 -18 -7 -20 -75
-20 l-75 0 0 -50 0 -50 65 0 c51 0 65 -3 65 -15 0 -12 -14 -15 -65 -15 l-65 0
0 -60 0 -60 75 0 c60 0 75 -3 75 -15 0 -12 -18 -15 -100 -15 l-100 0 0 153 c0
85 3 157 7 160 3 4 48 7 100 7 86 0 93 -1 93 -20z m120 -125 l0 -145 70 0 c56
0 70 -3 70 -15 0 -12 -17 -15 -90 -15 l-90 0 0 160 c0 153 1 160 20 160 19 0
20 -7 20 -145z"/>
<path d="M1932 953 l3 -58 50 -3 c64 -4 87 12 87 60 0 20 -3 41 -7 47 -3 6
-35 11 -71 11 l-65 0 3 -57z"/>
<path d="M2560 945 l0 -65 48 0 c59 0 72 12 72 65 0 53 -13 65 -72 65 l-48 0
0 -65z"/>
</g>
</svg>
